<svg xmlns="http://www.w3.org/2000/svg" xmlns:xlink="http://www.w3.org/1999/xlink" viewBox="0 0 409.22 112"><defs><style>.cls-1{fill:#f2f2f2;}.cls-2{fill:red;}.cls-3{fill:url(#linear-gradient);}.cls-4,.cls-9{fill:#fff;}.cls-5{fill:url(#linear-gradient-2);}.cls-6{fill:#c1272d;}.cls-7{fill:url(#linear-gradient-3);}.cls-8{fill:url(#linear-gradient-4);}.cls-9{font-size:72px;font-family:MyriadPro-Bold, Myriad Pro;letter-spacing:-0.06em;}.cls-10{font-weight:700;}.cls-11{font-family:Verdana, Verdana;}.cls-12{font-family:MyriadPro-Regular, Myriad Pro;}</style><linearGradient id="linear-gradient" x1="40.87" y1="81.63" x2="40.87" y2="22.09" gradientUnits="userSpaceOnUse"><stop offset="0" stop-color="#333"/><stop offset="1"/></linearGradient><linearGradient id="linear-gradient-2" x1="93.26" y1="81.63" x2="93.26" y2="22.09" xlink:href="#linear-gradient"/><linearGradient id="linear-gradient-3" x1="19.91" y1="72.18" x2="38.58" y2="72.18" xlink:href="#linear-gradient"/><linearGradient id="linear-gradient-4" x1="95.82" y1="-446.86" x2="114.49" y2="-446.86" gradientTransform="matrix(1, 0, 0, -1, 0, -374.68)" xlink:href="#linear-gradient"/></defs><title>Asset 3</title><g id="Layer_2" data-name="Layer 2"><g id="Layer_1-2" data-name="Layer 1"><rect class="cls-1" x="0.31" width="136.27" height="112"/><polygon class="cls-2" points="41.4 64.82 29.45 86.34 54.63 86.34 60.18 80.19 73.84 80.19 79.81 86.34 104.99 86.34 93.04 64.82 76.4 64.82 72.13 59.43 62.31 59.43 57.62 64.82 41.4 64.82"/><path class="cls-3" d="M53.77,77.1,41.4,26.78c0-2.59-3.15-4.69-7-4.69s-7,2.1-7,4.69a3.45,3.45,0,0,0,.7,2l17.23,50h.23c.16,1.55,2.1,2.77,4.47,2.77s4.48-1.34,4.48-3A2.29,2.29,0,0,0,53.77,77.1Z"/><ellipse class="cls-4" cx="34.57" cy="26.64" rx="4.27" ry="2.85"/><path class="cls-5" d="M106,28.81a3.45,3.45,0,0,0,.7-2c0-2.59-3.15-4.69-7-4.69s-7,2.1-7,4.69L79.81,78.85H80c.16,1.55,2.1,2.77,4.47,2.77s4.48-1.34,4.48-3a2,2,0,0,0,0-.33Z"/><ellipse class="cls-4" cx="99.45" cy="26.64" rx="4.27" ry="2.85"/><polygon class="cls-2" points="0 89.42 2.56 84.81 24.75 81.73 29.45 89.42 54.63 89.42 60.18 83.27 73.84 83.27 79.81 89.42 104.99 89.42 107.98 81.73 135.72 85.58 136.58 89.42 136.58 111.72 0 111.72 0 89.42"/><polygon class="cls-6" points="29.56 88.91 35.56 102.04 40.71 102.04 43.28 95.13 90.89 95.13 92.17 102.04 98.61 102.04 105.47 88.91 80.16 88.91 74.16 83.38 60.44 83.38 54.86 88.91 29.56 88.91"/><polygon class="cls-4" points="67.2 61.7 69 65.35 73.04 65.94 70.12 68.78 70.81 72.8 67.2 70.9 63.59 72.8 64.28 68.78 61.36 65.94 65.4 65.35 67.2 61.7"/><polygon class="cls-7" points="27.38 65.96 38.58 65.96 31.11 78.4 19.91 78.4 27.38 65.96"/><polygon class="cls-8" points="103.29 78.4 114.49 78.4 107.02 65.96 95.82 65.96 103.29 78.4"/><text class="cls-9" transform="translate(153.72 82.66)"><tspan class="cls-10">Red2</tspan><tspan class="cls-11" x="145.15" y="0">.</tspan><tspan class="cls-12" x="166.73" y="0">net</tspan></text></g></g></svg>