<svg xmlns="http://www.w3.org/2000/svg" xmlns:xlink="http://www.w3.org/1999/xlink" viewBox="0 0 193.11 52"><defs><style>.cls-1{font-size:36px;font-family:MyriadPro-Bold, Myriad Pro;letter-spacing:-0.06em;}.cls-1,.cls-7{fill:#fff;}.cls-2{font-weight:700;}.cls-3{font-family:MyriadPro-Regular, Myriad Pro;}.cls-4{fill:#f2f2f2;}.cls-5{fill:red;}.cls-6{fill:url(#linear-gradient);}.cls-8{fill:url(#linear-gradient-2);}.cls-9{fill:#c1272d;}.cls-10{fill:url(#linear-gradient-3);}.cls-11{fill:url(#linear-gradient-4);}</style><linearGradient id="linear-gradient" x1="18.97" y1="37.9" x2="18.97" y2="10.26" gradientUnits="userSpaceOnUse"><stop offset="0" stop-color="#333"/><stop offset="1"/></linearGradient><linearGradient id="linear-gradient-2" x1="43.3" y1="37.9" x2="43.3" y2="10.26" xlink:href="#linear-gradient"/><linearGradient id="linear-gradient-3" x1="9.24" y1="33.51" x2="17.91" y2="33.51" xlink:href="#linear-gradient"/><linearGradient id="linear-gradient-4" x1="44.49" y1="-12541.51" x2="53.16" y2="-12541.51" gradientTransform="matrix(1, 0, 0, -1, 0, -12508)" xlink:href="#linear-gradient"/></defs><title>Asset 11</title><g id="Layer_2" data-name="Layer 2"><g id="Layer_1-2" data-name="Layer 1"><text class="cls-1" transform="translate(71 39)"><tspan class="cls-2">Red2</tspan><tspan class="cls-3" x="72.58" y="0">.net</tspan></text><rect class="cls-4" x="0.14" width="63.27" height="52"/><polygon class="cls-5" points="19.22 30.09 13.67 40.09 25.36 40.09 27.94 37.23 34.28 37.23 37.06 40.09 48.75 40.09 43.2 30.09 35.47 30.09 33.49 27.59 28.93 27.59 26.75 30.09 19.22 30.09"/><path class="cls-6" d="M25,35.8,19.22,12.44c0-1.2-1.46-2.18-3.27-2.18s-3.27,1-3.27,2.18a1.6,1.6,0,0,0,.32.94l8,23.23h.11c.08.72,1,1.29,2.07,1.29s2.08-.62,2.08-1.39A1.06,1.06,0,0,0,25,35.8Z"/><ellipse class="cls-7" cx="16.05" cy="12.37" rx="1.98" ry="1.32"/><path class="cls-8" d="M49.22,13.38a1.6,1.6,0,0,0,.32-.94c0-1.2-1.46-2.18-3.27-2.18S43,11.23,43,12.44L37.06,36.61h.11c.08.72,1,1.29,2.07,1.29s2.08-.62,2.08-1.39a.94.94,0,0,0,0-.15Z"/><ellipse class="cls-7" cx="46.17" cy="12.37" rx="1.98" ry="1.32"/><polygon class="cls-5" points="0 41.52 1.19 39.38 11.49 37.95 13.67 41.52 25.36 41.52 27.94 38.66 34.28 38.66 37.06 41.52 48.75 41.52 50.13 37.95 63.02 39.73 63.41 41.52 63.41 51.87 0 51.87 0 41.52"/><polygon class="cls-9" points="13.72 41.28 16.51 47.38 18.9 47.38 20.09 44.17 42.2 44.17 42.79 47.38 45.78 47.38 48.97 41.28 37.22 41.28 34.43 38.71 28.06 38.71 25.47 41.28 13.72 41.28"/><polygon class="cls-7" points="31.2 28.65 32.04 30.34 33.91 30.61 32.55 31.93 32.88 33.8 31.2 32.92 29.52 33.8 29.84 31.93 28.49 30.61 30.36 30.34 31.2 28.65"/><polygon class="cls-10" points="12.71 30.62 17.91 30.62 14.44 36.4 9.24 36.4 12.71 30.62"/><polygon class="cls-11" points="47.96 36.4 53.16 36.4 49.69 30.62 44.49 30.62 47.96 36.4"/></g></g></svg>