<svg xmlns="http://www.w3.org/2000/svg" xmlns:xlink="http://www.w3.org/1999/xlink" viewBox="0 0 193.11 52"><defs><style>.cls-1{fill:#fff;}.cls-2{fill:#f2f2f2;}.cls-3{fill:red;}.cls-4{fill:url(#linear-gradient);}.cls-5{fill:url(#linear-gradient-2);}.cls-6{fill:#c1272d;}.cls-7{fill:url(#linear-gradient-3);}.cls-8{fill:url(#linear-gradient-4);}</style><linearGradient id="linear-gradient" x1="18.97" y1="37.9" x2="18.97" y2="10.26" gradientUnits="userSpaceOnUse"><stop offset="0" stop-color="#333"/><stop offset="1"/></linearGradient><linearGradient id="linear-gradient-2" x1="43.3" y1="37.9" x2="43.3" y2="10.26" xlink:href="#linear-gradient"/><linearGradient id="linear-gradient-3" x1="9.24" y1="33.51" x2="17.91" y2="33.51" xlink:href="#linear-gradient"/><linearGradient id="linear-gradient-4" x1="44.49" y1="-12525.51" x2="53.16" y2="-12525.51" gradientTransform="matrix(1, 0, 0, -1, 0, -12492)" xlink:href="#linear-gradient"/></defs><title>Asset 13</title><g id="Layer_2" data-name="Layer 2"><g id="Layer_1-2" data-name="Layer 1"><path class="cls-1" d="M73.38,15.06a48.32,48.32,0,0,1,7.31-.5c3.6,0,6.12.54,7.85,1.91a6.16,6.16,0,0,1,2.23,5.08,6.44,6.44,0,0,1-4.28,6v.11c1.69.68,2.63,2.3,3.24,4.54.76,2.74,1.51,5.9,2,6.84H86.08a30.39,30.39,0,0,1-1.69-5.65c-.65-3-1.69-3.85-3.92-3.89H78.81V39H73.38ZM78.81,25.5H81c2.74,0,4.36-1.37,4.36-3.49s-1.51-3.35-4-3.38a13.69,13.69,0,0,0-2.48.18Z"/><path class="cls-1" d="M96.45,31.95c.18,2.27,2.41,3.35,5,3.35a15.48,15.48,0,0,0,4.86-.72l.72,3.71a17.38,17.38,0,0,1-6.37,1.08c-6,0-9.4-3.46-9.4-9,0-4.46,2.77-9.39,8.89-9.39,5.69,0,7.85,4.43,7.85,8.78a13.1,13.1,0,0,1-.18,2.16Zm6.44-3.74c0-1.33-.58-3.56-3.1-3.56-2.3,0-3.24,2.09-3.38,3.56Z"/><path class="cls-1" d="M126,13.44v20.3c0,2,.07,4.07.14,5.26h-4.86L121,36.41H121a6.14,6.14,0,0,1-5.51,3c-4.18,0-7.52-3.56-7.52-9,0-5.94,3.67-9.36,7.88-9.36,2.16,0,3.85.76,4.64,2h.07V13.44Zm-5.47,15.41a8.82,8.82,0,0,0-.07-1,3.29,3.29,0,0,0-3.2-2.7c-2.48,0-3.78,2.23-3.78,5,0,3,1.48,4.86,3.74,4.86a3.2,3.2,0,0,0,3.17-2.63,4.67,4.67,0,0,0,.14-1.26Z"/><path class="cls-1" d="M127.41,39V35.69l3-2.74c5.11-4.57,7.6-7.2,7.67-9.94,0-1.91-1.15-3.42-3.85-3.42a8.48,8.48,0,0,0-5,1.94l-1.55-3.92a13,13,0,0,1,7.67-2.41c5.29,0,8.21,3.1,8.21,7.34,0,3.92-2.84,7.05-6.23,10.08l-2.16,1.8v.07H144V39Z"/><path class="cls-1" d="M145.45,37.13a2.13,2.13,0,0,1,2.16-2.27,2.27,2.27,0,1,1-2.16,2.27Z"/><path class="cls-1" d="M151.35,26.29c0-1.8,0-3.28-.14-4.71H154l.18,2.88h.07A6.41,6.41,0,0,1,160,21.18c2.41,0,6.16,1.44,6.16,7.42V39H163V29c0-2.81-1-5.15-4-5.15A4.5,4.5,0,0,0,154.73,27a4.55,4.55,0,0,0-.22,1.48V39h-3.17Z"/><path class="cls-1" d="M170.79,30.87c.07,4.28,2.81,6,6,6a11.46,11.46,0,0,0,4.82-.9l.54,2.27a14.12,14.12,0,0,1-5.8,1.08c-5.36,0-8.57-3.53-8.57-8.78s3.1-9.4,8.17-9.4c5.69,0,7.2,5,7.2,8.21a11.91,11.91,0,0,1-.11,1.48Zm9.29-2.27c0-2-.83-5.15-4.39-5.15-3.2,0-4.61,3-4.86,5.15Z"/><path class="cls-1" d="M188.57,16.57v5h4.54V24h-4.54v9.39c0,2.16.61,3.38,2.38,3.38a7.08,7.08,0,0,0,1.83-.21l.14,2.38a7.76,7.76,0,0,1-2.81.43A4.39,4.39,0,0,1,186.7,38c-.9-.94-1.22-2.48-1.22-4.54V24h-2.7V21.58h2.7V17.4Z"/><rect class="cls-2" x="0.14" width="63.27" height="52"/><polygon class="cls-3" points="19.22 30.09 13.67 40.09 25.36 40.09 27.94 37.23 34.28 37.23 37.06 40.09 48.75 40.09 43.2 30.09 35.47 30.09 33.49 27.59 28.93 27.59 26.75 30.09 19.22 30.09"/><path class="cls-4" d="M25,35.8,19.22,12.44c0-1.2-1.46-2.18-3.27-2.18s-3.27,1-3.27,2.18a1.6,1.6,0,0,0,.32.94l8,23.23h.11c.08.72,1,1.29,2.07,1.29s2.08-.62,2.08-1.39A1.06,1.06,0,0,0,25,35.8Z"/><ellipse class="cls-1" cx="16.05" cy="12.37" rx="1.98" ry="1.32"/><path class="cls-5" d="M49.22,13.38a1.6,1.6,0,0,0,.32-.94c0-1.2-1.46-2.18-3.27-2.18S43,11.23,43,12.44L37.06,36.61h.11c.08.72,1,1.29,2.07,1.29s2.08-.62,2.08-1.39a.94.94,0,0,0,0-.15Z"/><ellipse class="cls-1" cx="46.17" cy="12.37" rx="1.98" ry="1.32"/><polygon class="cls-3" points="0 41.52 1.19 39.38 11.49 37.95 13.67 41.52 25.36 41.52 27.94 38.66 34.28 38.66 37.06 41.52 48.75 41.52 50.13 37.95 63.02 39.73 63.41 41.52 63.41 51.87 0 51.87 0 41.52"/><polygon class="cls-6" points="13.72 41.28 16.51 47.38 18.9 47.38 20.09 44.17 42.2 44.17 42.79 47.38 45.78 47.38 48.97 41.28 37.22 41.28 34.43 38.71 28.06 38.71 25.47 41.28 13.72 41.28"/><polygon class="cls-1" points="31.2 28.65 32.04 30.34 33.91 30.61 32.55 31.93 32.88 33.8 31.2 32.92 29.52 33.8 29.84 31.93 28.49 30.61 30.36 30.34 31.2 28.65"/><polygon class="cls-7" points="12.71 30.62 17.91 30.62 14.44 36.4 9.24 36.4 12.71 30.62"/><polygon class="cls-8" points="47.96 36.4 53.16 36.4 49.69 30.62 44.49 30.62 47.96 36.4"/></g></g></svg>