<svg xmlns="http://www.w3.org/2000/svg" xmlns:xlink="http://www.w3.org/1999/xlink" viewBox="0 0 200.61 52"><defs><style>.cls-1{fill:#f2f2f2;}.cls-2{fill:red;}.cls-3{fill:url(#linear-gradient);}.cls-4{fill:#fff;}.cls-5{fill:url(#linear-gradient-2);}.cls-6{fill:#c1272d;}.cls-7{fill:url(#linear-gradient-3);}.cls-8{fill:url(#linear-gradient-4);}</style><linearGradient id="linear-gradient" x1="20.92" y1="36.45" x2="20.92" y2="5.97" gradientUnits="userSpaceOnUse"><stop offset="0" stop-color="#333"/><stop offset="1"/></linearGradient><linearGradient id="linear-gradient-2" x1="47.74" y1="36.45" x2="47.74" y2="5.97" xlink:href="#linear-gradient"/><linearGradient id="linear-gradient-3" x1="10.19" y1="31.61" x2="19.75" y2="31.61" xlink:href="#linear-gradient"/><linearGradient id="linear-gradient-4" x1="49.05" y1="-12681.61" x2="58.61" y2="-12681.61" gradientTransform="matrix(1, 0, 0, -1, 0, -12650)" xlink:href="#linear-gradient"/></defs><title>Asset 9</title><g id="Layer_2" data-name="Layer 2"><g id="Layer_1-2" data-name="Layer 1"><rect class="cls-1" x="0.16" width="69.76" height="52"/><polygon class="cls-2" points="21.19 27.85 15.07 38.87 27.97 38.87 30.81 35.72 37.8 35.72 40.86 38.87 53.75 38.87 47.63 27.85 39.11 27.85 36.92 25.09 31.9 25.09 29.5 27.85 21.19 27.85"/><path class="cls-3" d="M27.53,34.14,21.19,8.38c0-1.33-1.61-2.4-3.6-2.4S14,7.05,14,8.38a1.77,1.77,0,0,0,.36,1L23.16,35h.12c.08.79,1.07,1.42,2.29,1.42s2.29-.68,2.29-1.53A1.17,1.17,0,0,0,27.53,34.14Z"/><ellipse class="cls-4" cx="17.7" cy="8.3" rx="2.18" ry="1.46"/><path class="cls-5" d="M54.26,9.42a1.77,1.77,0,0,0,.36-1C54.62,7.05,53,6,51,6s-3.6,1.08-3.6,2.4L40.86,35H41c.08.79,1.07,1.42,2.29,1.42s2.29-.68,2.29-1.53a1,1,0,0,0,0-.17Z"/><ellipse class="cls-4" cx="50.91" cy="8.3" rx="2.18" ry="1.46"/><polygon class="cls-2" points="0 40.44 1.31 38.08 12.67 36.51 15.07 40.44 27.97 40.44 30.81 37.29 37.8 37.29 40.86 40.44 53.75 40.44 55.28 36.51 69.48 38.47 69.92 40.44 69.92 51.86 0 51.86 0 40.44"/><polygon class="cls-6" points="15.13 40.18 18.2 46.9 20.84 46.9 22.16 43.37 46.52 43.37 47.18 46.9 50.48 46.9 53.99 40.18 41.04 40.18 37.96 37.35 30.94 37.35 28.08 40.18 15.13 40.18"/><polygon class="cls-4" points="34.4 26.25 35.32 28.12 37.39 28.42 35.89 29.88 36.25 31.93 34.4 30.96 32.55 31.93 32.91 29.88 31.41 28.42 33.48 28.12 34.4 26.25"/><polygon class="cls-7" points="14.02 28.43 19.75 28.43 15.93 34.8 10.19 34.8 14.02 28.43"/><polygon class="cls-8" points="52.87 34.8 58.61 34.8 54.78 28.43 49.05 28.43 52.87 34.8"/><path class="cls-4" d="M80.88,15.06a48.32,48.32,0,0,1,7.31-.5c3.6,0,6.12.54,7.85,1.91a6.16,6.16,0,0,1,2.23,5.08,6.44,6.44,0,0,1-4.28,6v.11c1.69.68,2.63,2.3,3.24,4.54.76,2.74,1.51,5.9,2,6.84H93.58a30.39,30.39,0,0,1-1.69-5.65c-.65-3-1.69-3.85-3.92-3.89H86.31V39H80.88ZM86.31,25.5h2.16c2.74,0,4.36-1.37,4.36-3.49s-1.51-3.35-4-3.38a13.69,13.69,0,0,0-2.48.18Z"/><path class="cls-4" d="M104,31.95c.18,2.27,2.41,3.35,5,3.35a15.48,15.48,0,0,0,4.86-.72l.72,3.71a17.38,17.38,0,0,1-6.37,1.08c-6,0-9.4-3.46-9.4-9,0-4.46,2.77-9.39,8.89-9.39,5.69,0,7.85,4.43,7.85,8.78a13.1,13.1,0,0,1-.18,2.16Zm6.44-3.74c0-1.33-.58-3.56-3.1-3.56-2.3,0-3.24,2.09-3.38,3.56Z"/><path class="cls-4" d="M133.5,13.44v20.3c0,2,.07,4.07.14,5.26h-4.86l-.25-2.59h-.07a6.14,6.14,0,0,1-5.51,3c-4.18,0-7.52-3.56-7.52-9,0-5.94,3.67-9.36,7.88-9.36,2.16,0,3.85.76,4.64,2H128V13.44ZM128,28.85a8.82,8.82,0,0,0-.07-1,3.29,3.29,0,0,0-3.2-2.7c-2.48,0-3.78,2.23-3.78,5,0,3,1.48,4.86,3.74,4.86a3.2,3.2,0,0,0,3.17-2.63,4.67,4.67,0,0,0,.14-1.26Z"/><path class="cls-4" d="M134.91,39V35.69l3-2.74c5.11-4.57,7.6-7.2,7.67-9.94,0-1.91-1.15-3.42-3.85-3.42a8.48,8.48,0,0,0-5,1.94l-1.55-3.92a13,13,0,0,1,7.67-2.41c5.29,0,8.21,3.1,8.21,7.34,0,3.92-2.84,7.05-6.23,10.08l-2.16,1.8v.07h8.82V39Z"/><path class="cls-4" d="M152.95,37.13a2.13,2.13,0,0,1,2.16-2.27,2.27,2.27,0,1,1-2.16,2.27Z"/><path class="cls-4" d="M158.85,26.29c0-1.8,0-3.28-.14-4.71h2.81l.18,2.88h.07a6.41,6.41,0,0,1,5.76-3.28c2.41,0,6.16,1.44,6.16,7.42V39h-3.17V29c0-2.81-1-5.15-4-5.15A4.5,4.5,0,0,0,162.23,27a4.55,4.55,0,0,0-.22,1.48V39h-3.17Z"/><path class="cls-4" d="M178.29,30.87c.07,4.28,2.81,6,6,6a11.46,11.46,0,0,0,4.82-.9l.54,2.27a14.12,14.12,0,0,1-5.8,1.08c-5.36,0-8.57-3.53-8.57-8.78s3.1-9.4,8.17-9.4c5.69,0,7.2,5,7.2,8.21a11.91,11.91,0,0,1-.11,1.48Zm9.29-2.27c0-2-.83-5.15-4.39-5.15-3.2,0-4.61,3-4.86,5.15Z"/><path class="cls-4" d="M196.07,16.57v5h4.54V24h-4.54v9.39c0,2.16.61,3.38,2.38,3.38a7.08,7.08,0,0,0,1.83-.21l.14,2.38a7.76,7.76,0,0,1-2.81.43A4.39,4.39,0,0,1,194.2,38c-.9-.94-1.22-2.48-1.22-4.54V24h-2.7V21.58H193V17.4Z"/></g></g></svg>