<svg xmlns="http://www.w3.org/2000/svg" xmlns:xlink="http://www.w3.org/1999/xlink" viewBox="0 0 68.29 56"><defs><style>.cls-1{fill:#f2f2f2;}.cls-2{fill:red;}.cls-3{fill:url(#linear-gradient);}.cls-4{fill:#fff;}.cls-5{fill:url(#linear-gradient-2);}.cls-6{fill:#c1272d;}.cls-7{fill:url(#linear-gradient-3);}.cls-8{fill:url(#linear-gradient-4);}</style><linearGradient id="linear-gradient" x1="20.43" y1="40.81" x2="20.43" y2="11.04" gradientUnits="userSpaceOnUse"><stop offset="0" stop-color="#333"/><stop offset="1"/></linearGradient><linearGradient id="linear-gradient-2" x1="46.63" y1="40.81" x2="46.63" y2="11.04" xlink:href="#linear-gradient"/><linearGradient id="linear-gradient-3" x1="9.96" y1="36.09" x2="19.29" y2="36.09" xlink:href="#linear-gradient"/><linearGradient id="linear-gradient-4" x1="47.91" y1="-2892.77" x2="57.24" y2="-2892.77" gradientTransform="matrix(1, 0, 0, -1, 0, -2856.68)" xlink:href="#linear-gradient"/></defs><title>Asset 1</title><g id="Layer_2" data-name="Layer 2"><g id="Layer_1-2" data-name="Layer 1"><rect class="cls-1" x="0.16" width="68.13" height="56"/><polygon class="cls-2" points="20.7 32.41 14.72 43.17 27.32 43.17 30.09 40.1 36.92 40.1 39.91 43.17 52.5 43.17 46.52 32.41 38.2 32.41 36.06 29.72 31.16 29.72 28.81 32.41 20.7 32.41"/><path class="cls-3" d="M26.89,38.55,20.7,13.39c0-1.3-1.58-2.35-3.52-2.35s-3.52,1.05-3.52,2.35a1.73,1.73,0,0,0,.35,1l8.61,25h.11c.08.77,1,1.39,2.23,1.39s2.24-.67,2.24-1.49A1.15,1.15,0,0,0,26.89,38.55Z"/><ellipse class="cls-4" cx="17.29" cy="13.32" rx="2.13" ry="1.42"/><path class="cls-5" d="M53,14.41a1.73,1.73,0,0,0,.35-1c0-1.3-1.58-2.35-3.52-2.35s-3.52,1.05-3.52,2.35l-6.4,26H40c.08.77,1,1.39,2.23,1.39s2.24-.67,2.24-1.49a1,1,0,0,0,0-.16Z"/><ellipse class="cls-4" cx="49.72" cy="13.32" rx="2.13" ry="1.42"/><polygon class="cls-2" points="0 44.71 1.28 42.4 12.38 40.87 14.72 44.71 27.32 44.71 30.09 41.63 36.92 41.63 39.91 44.71 52.5 44.71 53.99 40.87 67.86 42.79 68.29 44.71 68.29 55.86 0 55.86 0 44.71"/><polygon class="cls-6" points="14.78 44.45 17.78 51.02 20.35 51.02 21.64 47.56 45.44 47.56 46.09 51.02 49.3 51.02 52.73 44.45 40.08 44.45 37.08 41.69 30.22 41.69 27.43 44.45 14.78 44.45"/><polygon class="cls-4" points="33.6 30.85 34.5 32.68 36.52 32.97 35.06 34.39 35.4 36.4 33.6 35.45 31.8 36.4 32.14 34.39 30.68 32.97 32.7 32.68 33.6 30.85"/><polygon class="cls-7" points="13.69 32.98 19.29 32.98 15.56 39.2 9.96 39.2 13.69 32.98"/><polygon class="cls-8" points="51.64 39.2 57.24 39.2 53.51 32.98 47.91 32.98 51.64 39.2"/></g></g></svg>